# Blender v2.92.0 OBJ File: 'IGB388 .blend'
# www.blender.org
mtllib Building.mtl
o Building_Cube.001
v -12.857735 0.001000 8.000000
v -12.857735 0.001000 -16.257551
v -2.434714 3.944193 3.464112
v -0.902301 0.001000 -16.257551
v -0.902301 0.001000 1.226979
v -0.902301 0.001000 3.464112
v -0.902301 0.001000 6.688038
v 5.924382 0.001000 8.000000
v 5.924382 0.001000 6.688038
v -2.434714 0.001000 1.226979
v -2.434714 3.944193 1.226979
v -0.902301 3.944193 1.226979
v -0.902301 3.944193 3.464112
v -2.434714 0.001000 3.464112
v -2.434714 0.001000 7.158647
v -11.627497 0.001000 7.158647
v -2.434714 0.001000 -15.000708
v -11.627497 0.001000 -15.000708
v -2.434714 7.273656 7.158647
v -11.627497 7.273656 7.158647
v -11.627497 7.273656 -15.000708
v -2.434714 7.273656 -15.000708
v -12.857735 9.120539 8.000000
v -12.857735 9.120539 -16.257551
v -0.902301 9.120539 -16.257551
v -0.902301 9.120539 6.688038
v 5.924382 9.120539 6.688038
v 5.924382 9.120539 8.000000
vt 0.656980 0.356407
vt 0.656980 0.258786
vt 0.689862 0.258786
vt 0.689862 0.356407
vt 0.302400 0.144155
vt 0.302400 0.396610
vt 0.000000 0.396610
vt 0.000000 0.000000
vt 0.016355 0.000000
vt 0.016355 0.144155
vt 0.056545 0.144155
vt 0.084434 0.144155
vt 0.650547 0.258786
vt 0.650547 0.356407
vt 0.617665 0.356407
vt 0.617665 0.258786
vt 0.645554 0.395097
vt 0.617665 0.395097
vt 0.617665 0.362738
vt 0.645554 0.362738
vt 0.707553 0.674792
vt 0.707553 0.402941
vt 0.904808 0.402941
vt 0.904808 0.674792
vt 0.229418 0.799551
vt 0.000000 0.799551
vt 0.000000 0.402941
vt 0.229418 0.402941
vt 0.570900 0.644886
vt 0.570900 0.617441
vt 0.701120 0.402941
vt 0.701120 0.684438
vt 0.182956 1.000000
vt 0.000000 1.000000
vt 0.000000 0.805882
vt 0.182956 0.805882
vt 0.418808 0.900982
vt 0.235851 0.900982
vt 0.235851 0.706863
vt 0.418808 0.706863
vt 0.791312 0.880204
vt 0.791312 0.907649
vt 0.707553 0.952974
vt 0.707553 0.681123
vt 0.890510 0.907649
vt 0.890510 0.952974
vt 0.890510 0.681123
vt 0.890510 0.880204
vt 0.471702 0.962619
vt 0.471702 0.690768
vt 0.654658 0.690768
vt 0.654658 0.962619
vt 0.847083 0.000000
vt 0.847083 0.252455
vt 0.617665 0.252455
vt 0.617665 0.000000
vt 0.471702 0.684438
vt 0.471702 0.644886
vt 0.471702 0.617441
vt 0.471702 0.402941
vt 1.000000 0.000000
vt 1.000000 0.225771
vt 0.853516 0.225771
vt 0.853516 0.000000
vt 0.465269 0.402941
vt 0.465269 0.700533
vt 0.235851 0.700533
vt 0.235851 0.402941
vt 0.896943 0.681123
vt 0.913298 0.681123
vt 0.913298 0.906893
vt 0.896943 0.906893
vt 0.611232 0.396610
vt 0.308833 0.396610
vt 0.308833 0.000000
vt 0.325188 0.000000
vt 0.325188 0.144155
vt 0.611232 0.144155
vn 0.0000 0.0000 -1.0000
vn 0.0000 1.0000 0.0000
vn 0.0000 0.0000 1.0000
vn 0.0000 -1.0000 0.0000
vn 1.0000 0.0000 0.0000
vn -1.0000 0.0000 0.0000
usemtl None
s off
f 13/1/1 6/2/1 14/3/1 3/4/1
f 4/5/2 2/6/2 1/7/2 8/8/2 9/9/2 7/10/2 6/11/2 5/12/2
f 5/13/3 12/14/3 11/15/3 10/16/3
f 12/17/4 13/18/4 3/19/4 11/20/4
f 20/21/4 21/22/4 22/23/4 19/24/4
f 8/25/3 28/26/3 23/27/3 1/28/3
f 13/29/5 12/30/5 25/31/5 26/32/5
f 17/33/3 22/34/3 21/35/3 18/36/3
f 16/37/1 20/38/1 19/39/1 15/40/1
f 11/41/6 3/42/6 19/43/6 22/44/6
f 3/42/6 14/45/6 15/46/6 19/43/6
f 11/41/6 22/44/6 17/47/6 10/48/6
f 21/49/5 20/50/5 16/51/5 18/52/5
f 4/53/1 2/54/1 24/55/1 25/56/1
f 13/29/5 26/32/5 7/57/5 6/58/5
f 12/30/5 5/59/5 4/60/5 25/31/5
f 7/61/1 26/62/1 27/63/1 9/64/1
f 2/65/6 1/66/6 23/67/6 24/68/6
f 8/69/5 9/70/5 27/71/5 28/72/5
f 24/73/2 23/74/2 28/75/2 27/76/2 26/77/2 25/78/2
