# Blender v2.92.0 OBJ File: 'IGB388 .blend'
# www.blender.org
mtllib License.mtl
o Cube.001_Cube
v -0.168182 0.688177 1.818141
v -0.173237 0.673746 1.815507
v -0.168182 0.777515 1.648193
v -0.173237 0.767162 1.637799
v 0.053245 0.688177 1.818141
v 0.058300 0.673746 1.815507
v 0.053245 0.777515 1.648193
v 0.058300 0.767162 1.637799
v -0.173237 0.779554 1.644313
v -0.173237 0.686138 1.822021
v 0.058300 0.779554 1.644313
v 0.058300 0.686138 1.822021
v -0.168182 0.774609 1.646665
v -0.168182 0.685271 1.816614
v 0.053245 0.774609 1.646665
v 0.053245 0.685271 1.816614
vt 0.799927 0.116258
vt 0.799927 1.000000
vt 0.847180 0.883742
vt 0.847180 0.000000
vt 0.737317 0.000000
vt 0.372498 0.000000
vt 0.372498 0.116793
vt 0.737317 0.116793
vt 0.744995 0.000000
vt 0.744995 0.883742
vt 0.792248 1.000000
vt 0.792248 0.116258
vt 0.364818 0.883371
vt 0.000000 0.883371
vt 0.000000 0.999927
vt 0.364818 0.999927
vt 1.000000 0.000000
vt 0.892377 0.000000
vt 0.892377 0.088782
vt 1.000000 0.088782
vt 0.372497 0.998670
vt 0.737316 0.998670
vt 0.007964 0.019285
vt 0.000000 0.000000
vt 0.007964 0.864086
vt 0.356855 0.019285
vt 0.364819 0.000000
vt 0.356855 0.864086
vt 0.007964 0.046615
vt 0.007964 0.891419
vt 0.356855 0.891419
vt 0.356855 0.046615
vt 0.873618 0.872419
vt 0.884698 0.845158
vt 0.884698 0.000000
vt 0.873618 0.027262
vt 0.854859 0.845157
vt 0.865939 0.872419
vt 0.865939 0.027261
vt 0.854859 0.000000
vn -1.0000 0.0000 0.0000
vn 0.0000 0.4653 -0.8852
vn 1.0000 0.0000 0.0000
vn 0.0000 -0.4653 0.8852
vn 0.0000 0.4653 -0.8851
vn 0.0000 -0.8852 -0.4653
vn -0.0000 0.8852 0.4653
vn 0.0000 -0.4653 0.8851
usemtl None
s off
f 10/1/1 9/2/1 4/3/1 2/4/1
f 9/5/2 11/6/2 8/7/2 4/8/2
f 11/9/3 12/10/3 6/11/3 8/12/3
f 12/13/4 10/14/4 2/15/4 6/16/4
f 5/17/5 16/18/5 14/19/5 1/20/5
f 8/7/6 6/21/6 2/22/6 4/8/6
f 3/23/7 9/24/7 10/14/7 1/25/7
f 7/26/7 11/27/7 9/24/7 3/23/7
f 5/28/7 12/13/7 11/27/7 7/26/7
f 1/25/7 10/14/7 12/13/7 5/28/7
f 13/29/7 14/30/7 16/31/7 15/32/7
f 3/23/8 13/29/8 15/32/8 7/26/8
f 7/33/1 15/34/1 16/35/1 5/36/1
f 1/37/3 14/38/3 13/39/3 3/40/3
